<svg width="349" height="70" viewBox="0 0 349 70" fill="none" xmlns="http://www.w3.org/2000/svg">
<path d="M348.47 2.0354C342.374 1.98487 336.278 1.93434 330.182 1.88381C254.621 1.25745 179.059 0.631094 103.498 0.00473619L102.923 -2.90871e-05L102.407 0.322627C73.4402 18.4361 44.4731 36.5496 15.5061 54.6631C10.3374 57.8952 5.16869 61.1272 2.55108e-05 64.3593C1.08582 66.0641 2.17162 67.7689 3.25742 69.4737C8.3718 66.1564 13.4862 62.8391 18.6006 59.5218C47.2634 40.9306 75.9262 22.3394 104.589 3.74817L103.498 4.06606C179.059 3.43971 254.621 2.81335 330.182 2.18699C336.278 2.13646 342.374 2.08593 348.47 2.0354Z" fill="white"/>
</svg>
