<svg width="146" height="184" viewBox="0 0 146 184" fill="none" xmlns="http://www.w3.org/2000/svg">
<path d="M2.13466e-06 183.42C0.589214 178.452 1.17843 173.484 1.76765 168.517C8.14604 114.741 14.5244 60.9658 20.9028 7.1904L21.0798 5.69863L22.6166 5.62805C58.4699 3.98153 94.3232 2.335 130.176 0.688471C135.174 0.45898 140.171 0.229493 145.168 8.01442e-07C145.24 2.01992 145.313 4.03985 145.385 6.05977C140.384 6.18826 135.383 6.31676 130.383 6.44525C94.5033 7.36716 58.6241 8.28906 22.7449 9.21097L24.4586 7.64862C16.9952 61.2842 9.53177 114.92 2.06834 168.555C1.37889 173.51 0.689451 178.465 2.13466e-06 183.42Z" fill="white"/>
</svg>
